<mxfile host="app.diagrams.net" modified="2021-11-23T03:57:42.266Z" agent="5.0 (Macintosh; Intel Mac OS X 10_14_6) AppleWebKit/537.36 (KHTML, like Gecko) Chrome/93.0.4577.82 Safari/537.36 Edg/93.0.961.52" etag="mklgR1-4qBASMEp5JgK7" version="15.7.4" type="github">
  <diagram id="kgpKYQtTHZ0yAKxKKP6v" name="Page-1">
    <mxGraphModel dx="946" dy="614" grid="1" gridSize="10" guides="1" tooltips="1" connect="1" arrows="1" fold="1" page="1" pageScale="1" pageWidth="850" pageHeight="1100" background="#EEEEEE" math="0" shadow="0">
      <root>
        <mxCell id="0" />
        <mxCell id="1" parent="0" />
        <mxCell id="f0vm7rPdoKlq_M4w9rui-5" value="Passport" style="shape=umlLifeline;perimeter=lifelinePerimeter;container=1;collapsible=0;recursiveResize=0;shadow=0;strokeWidth=1;fillColor=#F5AB50;strokeColor=#909090;fontColor=#1A1A1A;rounded=1;" vertex="1" parent="1">
          <mxGeometry x="535" y="60" width="100" height="500" as="geometry" />
        </mxCell>
        <mxCell id="f0vm7rPdoKlq_M4w9rui-13" value="" style="group" vertex="1" connectable="0" parent="1">
          <mxGeometry x="360" y="153" width="290" height="80" as="geometry" />
        </mxCell>
        <mxCell id="f0vm7rPdoKlq_M4w9rui-11" value="Opt" style="shape=umlFrame;whiteSpace=wrap;html=1;rounded=1;fontColor=#1A1A1A;strokeColor=#909090;fillColor=#F5AB50;width=40;height=15;" vertex="1" parent="f0vm7rPdoKlq_M4w9rui-13">
          <mxGeometry width="279.64285714285717" height="80" as="geometry" />
        </mxCell>
        <mxCell id="f0vm7rPdoKlq_M4w9rui-12" value="【未登录】" style="text;html=1;strokeColor=none;fillColor=none;align=center;verticalAlign=middle;whiteSpace=wrap;rounded=0;fontColor=#1A1A1A;" vertex="1" parent="f0vm7rPdoKlq_M4w9rui-13">
          <mxGeometry y="11.428571428571427" width="72.5" height="34.285714285714285" as="geometry" />
        </mxCell>
        <mxCell id="f0vm7rPdoKlq_M4w9rui-26" value="" style="points=[];perimeter=orthogonalPerimeter;shadow=0;strokeWidth=1;fillColor=#F5AB50;strokeColor=#909090;fontColor=#1A1A1A;rounded=1;" vertex="1" parent="f0vm7rPdoKlq_M4w9rui-13">
          <mxGeometry x="219.99714285714288" y="5.7142857142857135" width="10.357142857142858" height="68.57142857142857" as="geometry" />
        </mxCell>
        <mxCell id="3nuBFxr9cyL0pnOWT2aG-1" value="游戏" style="shape=umlLifeline;perimeter=lifelinePerimeter;container=1;collapsible=0;recursiveResize=0;shadow=0;strokeWidth=1;fillColor=#F5AB50;strokeColor=#909090;fontColor=#1A1A1A;rounded=1;" parent="1" vertex="1">
          <mxGeometry x="55" y="60" width="100" height="500" as="geometry" />
        </mxCell>
        <mxCell id="3nuBFxr9cyL0pnOWT2aG-2" value="" style="points=[];perimeter=orthogonalPerimeter;shadow=0;strokeWidth=1;fillColor=#F5AB50;strokeColor=#909090;fontColor=#1A1A1A;rounded=1;" parent="3nuBFxr9cyL0pnOWT2aG-1" vertex="1">
          <mxGeometry x="45" y="70" width="10" height="280" as="geometry" />
        </mxCell>
        <mxCell id="3nuBFxr9cyL0pnOWT2aG-3" value="用户登录" style="verticalAlign=bottom;startArrow=oval;endArrow=block;startSize=8;shadow=0;strokeWidth=1;strokeColor=#182E3E;fontColor=#1A1A1A;labelBackgroundColor=#EEEEEE;" parent="3nuBFxr9cyL0pnOWT2aG-1" target="3nuBFxr9cyL0pnOWT2aG-2" edge="1">
          <mxGeometry relative="1" as="geometry">
            <mxPoint x="-15" y="70" as="sourcePoint" />
          </mxGeometry>
        </mxCell>
        <mxCell id="3nuBFxr9cyL0pnOWT2aG-5" value="手游SDK" style="shape=umlLifeline;perimeter=lifelinePerimeter;container=1;collapsible=0;recursiveResize=0;shadow=0;strokeWidth=1;fillColor=#F5AB50;strokeColor=#909090;fontColor=#1A1A1A;rounded=1;" parent="1" vertex="1">
          <mxGeometry x="215" y="60" width="100" height="500" as="geometry" />
        </mxCell>
        <mxCell id="3nuBFxr9cyL0pnOWT2aG-6" value="" style="points=[];perimeter=orthogonalPerimeter;shadow=0;strokeWidth=1;fillColor=#F5AB50;strokeColor=#909090;fontColor=#1A1A1A;rounded=1;" parent="3nuBFxr9cyL0pnOWT2aG-5" vertex="1">
          <mxGeometry x="45" y="80" width="10" height="260" as="geometry" />
        </mxCell>
        <mxCell id="3nuBFxr9cyL0pnOWT2aG-8" value="调用登录方法" style="verticalAlign=bottom;endArrow=block;entryX=0;entryY=0;shadow=0;strokeWidth=1;strokeColor=#182E3E;fontColor=#1A1A1A;labelBackgroundColor=#EEEEEE;exitX=1.1;exitY=0.032;exitDx=0;exitDy=0;exitPerimeter=0;" parent="1" source="3nuBFxr9cyL0pnOWT2aG-2" target="3nuBFxr9cyL0pnOWT2aG-6" edge="1">
          <mxGeometry relative="1" as="geometry">
            <mxPoint x="160" y="140" as="sourcePoint" />
          </mxGeometry>
        </mxCell>
        <mxCell id="f0vm7rPdoKlq_M4w9rui-3" value="虎扑APP" style="shape=umlLifeline;perimeter=lifelinePerimeter;container=1;collapsible=0;recursiveResize=0;shadow=0;strokeWidth=1;fillColor=#F5AB50;strokeColor=#909090;fontColor=#1A1A1A;rounded=1;" vertex="1" parent="1">
          <mxGeometry x="380" y="60" width="105" height="500" as="geometry" />
        </mxCell>
        <mxCell id="f0vm7rPdoKlq_M4w9rui-4" value="" style="points=[];perimeter=orthogonalPerimeter;shadow=0;strokeWidth=1;fillColor=#F5AB50;strokeColor=#909090;fontColor=#1A1A1A;rounded=1;" vertex="1" parent="f0vm7rPdoKlq_M4w9rui-3">
          <mxGeometry x="47.5" y="90" width="10" height="240" as="geometry" />
        </mxCell>
        <mxCell id="f0vm7rPdoKlq_M4w9rui-20" value="" style="html=1;points=[];perimeter=orthogonalPerimeter;rounded=1;fontColor=#1A1A1A;strokeColor=#909090;fillColor=#F5AB50;" vertex="1" parent="f0vm7rPdoKlq_M4w9rui-3">
          <mxGeometry x="53.5" y="200" width="10" height="110" as="geometry" />
        </mxCell>
        <mxCell id="f0vm7rPdoKlq_M4w9rui-21" value="跳用户授权页" style="edgeStyle=orthogonalEdgeStyle;html=1;align=left;spacingLeft=2;endArrow=block;rounded=0;entryX=1;entryY=0;fontColor=#1A1A1A;strokeColor=#182E3E;labelBackgroundColor=none;exitX=0.95;exitY=0.383;exitDx=0;exitDy=0;exitPerimeter=0;" edge="1" target="f0vm7rPdoKlq_M4w9rui-20" parent="f0vm7rPdoKlq_M4w9rui-3" source="f0vm7rPdoKlq_M4w9rui-4">
          <mxGeometry relative="1" as="geometry">
            <mxPoint x="70" y="180" as="sourcePoint" />
            <Array as="points">
              <mxPoint x="57" y="180" />
              <mxPoint x="100" y="180" />
              <mxPoint x="100" y="200" />
            </Array>
          </mxGeometry>
        </mxCell>
        <mxCell id="f0vm7rPdoKlq_M4w9rui-7" value="虎扑服务端" style="shape=umlLifeline;perimeter=lifelinePerimeter;container=1;collapsible=0;recursiveResize=0;shadow=0;strokeWidth=1;fillColor=#F5AB50;strokeColor=#909090;fontColor=#1A1A1A;rounded=1;" vertex="1" parent="1">
          <mxGeometry x="695" y="60" width="100" height="500" as="geometry" />
        </mxCell>
        <mxCell id="f0vm7rPdoKlq_M4w9rui-8" value="" style="points=[];perimeter=orthogonalPerimeter;shadow=0;strokeWidth=1;fillColor=#F5AB50;strokeColor=#909090;fontColor=#1A1A1A;rounded=1;" vertex="1" parent="f0vm7rPdoKlq_M4w9rui-7">
          <mxGeometry x="45" y="220" width="10" height="70" as="geometry" />
        </mxCell>
        <mxCell id="f0vm7rPdoKlq_M4w9rui-18" value="登录态" style="verticalAlign=bottom;endArrow=block;shadow=0;strokeWidth=1;strokeColor=#182E3E;fontColor=#1A1A1A;labelBackgroundColor=#EEEEEE;exitX=-0.193;exitY=0.865;exitDx=0;exitDy=0;exitPerimeter=0;entryX=0.95;entryY=0.283;entryDx=0;entryDy=0;entryPerimeter=0;" edge="1" parent="1" source="f0vm7rPdoKlq_M4w9rui-26" target="f0vm7rPdoKlq_M4w9rui-4">
          <mxGeometry relative="1" as="geometry">
            <mxPoint x="570" y="207" as="sourcePoint" />
            <mxPoint x="440" y="207" as="targetPoint" />
          </mxGeometry>
        </mxCell>
        <mxCell id="f0vm7rPdoKlq_M4w9rui-22" value="用户同意、携带登录态" style="verticalAlign=bottom;endArrow=block;shadow=0;strokeWidth=1;strokeColor=#182E3E;fontColor=#1A1A1A;labelBackgroundColor=#EEEEEE;exitX=1.05;exitY=0.273;exitDx=0;exitDy=0;exitPerimeter=0;entryX=-0.2;entryY=0.143;entryDx=0;entryDy=0;entryPerimeter=0;" edge="1" parent="1" source="f0vm7rPdoKlq_M4w9rui-20" target="f0vm7rPdoKlq_M4w9rui-8">
          <mxGeometry relative="1" as="geometry">
            <mxPoint x="450" y="290.0000000000001" as="sourcePoint" />
            <mxPoint x="730" y="290" as="targetPoint" />
          </mxGeometry>
        </mxCell>
        <mxCell id="f0vm7rPdoKlq_M4w9rui-23" value="access-token 、用户信息" style="verticalAlign=bottom;endArrow=block;shadow=0;strokeWidth=1;strokeColor=#182E3E;fontColor=#1A1A1A;labelBackgroundColor=#EEEEEE;exitX=-0.3;exitY=0.886;exitDx=0;exitDy=0;exitPerimeter=0;entryX=1.15;entryY=0.736;entryDx=0;entryDy=0;entryPerimeter=0;" edge="1" parent="1" source="f0vm7rPdoKlq_M4w9rui-8" target="f0vm7rPdoKlq_M4w9rui-20">
          <mxGeometry relative="1" as="geometry">
            <mxPoint x="730" y="345" as="sourcePoint" />
            <mxPoint x="450" y="345" as="targetPoint" />
          </mxGeometry>
        </mxCell>
        <mxCell id="f0vm7rPdoKlq_M4w9rui-24" value="access-token 、用户信息" style="verticalAlign=bottom;endArrow=block;shadow=0;strokeWidth=1;strokeColor=#182E3E;fontColor=#1A1A1A;labelBackgroundColor=#EEEEEE;exitX=-0.15;exitY=0.958;exitDx=0;exitDy=0;exitPerimeter=0;entryX=1.2;entryY=0.923;entryDx=0;entryDy=0;entryPerimeter=0;" edge="1" parent="1" source="f0vm7rPdoKlq_M4w9rui-4" target="3nuBFxr9cyL0pnOWT2aG-6">
          <mxGeometry relative="1" as="geometry">
            <mxPoint x="420" y="380" as="sourcePoint" />
            <mxPoint x="280" y="380" as="targetPoint" />
          </mxGeometry>
        </mxCell>
        <mxCell id="f0vm7rPdoKlq_M4w9rui-9" value="唤起虎扑App" style="verticalAlign=bottom;endArrow=block;entryX=-0.05;entryY=0;shadow=0;strokeWidth=1;strokeColor=#182E3E;fontColor=#1A1A1A;labelBackgroundColor=#EEEEEE;exitX=1;exitY=0.038;exitDx=0;exitDy=0;exitPerimeter=0;entryDx=0;entryDy=0;entryPerimeter=0;" edge="1" parent="1" source="3nuBFxr9cyL0pnOWT2aG-6" target="f0vm7rPdoKlq_M4w9rui-4">
          <mxGeometry relative="1" as="geometry">
            <mxPoint x="275" y="150.0000000000001" as="sourcePoint" />
            <mxPoint x="425" y="150.0000000000001" as="targetPoint" />
          </mxGeometry>
        </mxCell>
        <mxCell id="f0vm7rPdoKlq_M4w9rui-17" value="登录" style="verticalAlign=bottom;endArrow=block;shadow=0;strokeWidth=1;strokeColor=#182E3E;fontColor=#1A1A1A;labelBackgroundColor=#EEEEEE;exitX=1.05;exitY=0.083;exitDx=0;exitDy=0;exitPerimeter=0;entryX=-0.193;entryY=0.165;entryDx=0;entryDy=0;entryPerimeter=0;" edge="1" parent="1" source="f0vm7rPdoKlq_M4w9rui-4" target="f0vm7rPdoKlq_M4w9rui-26">
          <mxGeometry relative="1" as="geometry">
            <mxPoint x="437.5" y="180.0000000000001" as="sourcePoint" />
            <mxPoint x="570" y="170" as="targetPoint" />
          </mxGeometry>
        </mxCell>
        <mxCell id="f0vm7rPdoKlq_M4w9rui-25" value="access-token 、用户信息" style="verticalAlign=bottom;endArrow=block;shadow=0;strokeWidth=1;strokeColor=#182E3E;fontColor=#1A1A1A;labelBackgroundColor=#EEEEEE;exitX=-0.4;exitY=0.965;exitDx=0;exitDy=0;exitPerimeter=0;entryX=1.3;entryY=0.925;entryDx=0;entryDy=0;entryPerimeter=0;" edge="1" parent="1" source="3nuBFxr9cyL0pnOWT2aG-6" target="3nuBFxr9cyL0pnOWT2aG-2">
          <mxGeometry relative="1" as="geometry">
            <mxPoint x="250" y="390" as="sourcePoint" />
            <mxPoint x="120" y="390" as="targetPoint" />
          </mxGeometry>
        </mxCell>
      </root>
    </mxGraphModel>
  </diagram>
</mxfile>
